<svg width="45" height="24" viewBox="0 0 45 24" fill="none" xmlns="http://www.w3.org/2000/svg">
<path fill-rule="evenodd" clip-rule="evenodd" d="M37.1348 12.1952C37.1666 13.9826 35.742 15.2563 33.7249 15.2563C31.8154 15.2563 30.206 14.0842 30.206 11.2276C30.206 8.80175 31.7321 6.80201 33.9917 6.76355C34.9813 6.76355 37.1332 6.75586 37.1332 6.75586L36.1361 8.58178H34.2144C33.24 8.58178 32.3701 9.24785 32.2458 10.2662C32.7641 9.77393 33.5719 9.47705 34.4054 9.47705C35.9633 9.48166 37.112 10.8246 37.1348 12.1967V12.1952ZM35.007 12.3351C35.0085 11.6245 34.469 11.0276 33.7355 11.0276C33.0021 11.0276 32.4428 11.6306 32.4565 12.3475C32.4565 13.1027 33.1187 13.6181 33.6961 13.6181C34.4281 13.6181 35.007 13.0566 35.007 12.3351Z" fill="#1D1346"/>
<path d="M44.5 8.92175V15.0779H42.3692V10.7523H40.3173V15.0779H38.1865V8.92175H44.5Z" fill="#1D1346"/>
<path d="M28.561 12.975L28.5632 12.9735H28.5602L28.561 12.975Z" fill="#1D1346"/>
<path d="M26.8932 13.4442C27.8171 13.4606 28.5167 13.0045 28.561 12.975L29.3619 14.4518C28.6996 14.984 27.8403 15.2701 26.9992 15.2563C25.0912 15.2471 23.5 13.7703 23.5 11.9829C23.5 10.46 24.9306 8.74329 27.0114 8.74329C27.9752 8.74944 28.6496 9.01863 29.3558 9.53857L28.5617 10.9922C28.5617 10.9922 27.8267 10.4908 26.8962 10.5215C26.2991 10.5215 25.505 11.0307 25.4929 11.9813C25.4929 12.9166 26.2945 13.4442 26.8932 13.4442Z" fill="#1D1346"/>
<path d="M6.53615 12L3.40578 13.8075L0.5 18.8407L12.3477 12H6.53615Z" fill="#8F4794"/>
<path d="M15.478 6.84082L12.3477 8.64828L9.44189 13.6815L21.2896 6.84082H15.478Z" fill="#E40646"/>
<path d="M12.3477 5.0332L9.44189 0V10.3187V13.6798V23.9985L12.3477 18.9653V5.0332Z" fill="#F9B429"/>
<path d="M9.44189 0L12.3477 5.0332L15.478 6.84066H21.2896L9.44189 0Z" fill="#EF8019"/>
<path d="M9.44189 10.3188V23.9986L12.3477 18.9654V15.352L9.44189 10.3188Z" fill="#78B72A"/>
<path d="M15.478 17.1592L12.3477 18.9666L9.44189 23.9998L21.2896 17.1592H15.478Z" fill="#00853F"/>
<path d="M0.5 5.15918V18.839L3.40578 13.8058V10.1924L0.5 5.15918Z" fill="#5B57A2"/>
<path d="M9.44193 10.3185L9.44499 10.3231L0.5 5.15918L3.40578 10.1924L15.4781 17.1592H21.2896L9.44193 10.3185Z" fill="#0698D6"/>
</svg>
